<svg xmlns="http://www.w3.org/2000/svg" viewBox="0 0 1200 800"><rect width="1200" height="800" fill="#f7f9fc"/><rect x="38" y="38" width="1124" height="724" rx="30" fill="#fff" stroke="#dbe3ef"/><text x="76" y="104" fill="#0d1b2a" font-family="Arial" font-size="30" font-weight="700">CariSekolah</text><text x="76" y="136" fill="#667085" font-family="Arial" font-size="15">School discovery and comparison platform</text><rect x="76" y="172" width="692" height="468" rx="24" fill="#ffffff" stroke="#dce6f2"/><rect x="104" y="198" width="636" height="54" rx="16" fill="#f8fafc" stroke="#e4e7ec"/><text x="128" y="232" fill="#98a2b3" font-family="Arial" font-size="14">Search school name, location, or program...</text><rect x="630" y="205" width="92" height="40" rx="12" fill="#0d1b2a"/><text x="653" y="231" fill="#fff" font-family="Arial" font-size="14" font-weight="700">Search</text><text x="104" y="292" fill="#101828" font-family="Arial" font-size="22" font-weight="700">Explore schools</text><g font-family="Arial"><g><rect x="104" y="322" width="186" height="242" rx="18" fill="#fff" stroke="#dce6f2"/><rect x="118" y="336" width="158" height="96" rx="12" fill="#dfe8f5"/><rect x="138" y="360" width="118" height="48" rx="8" fill="#b9cbe2"/><text x="120" y="460" fill="#101828" font-size="16" font-weight="700">Global Mandiri</text><text x="120" y="484" fill="#667085" font-size="13">Jakarta Selatan</text><rect x="120" y="506" width="76" height="24" rx="12" fill="#eef4ff"/><text x="134" y="523" fill="#2459b8" font-size="11">International</text></g><g><rect x="312" y="322" width="186" height="242" rx="18" fill="#fff" stroke="#dce6f2"/><rect x="326" y="336" width="158" height="96" rx="12" fill="#e7ecf2"/><rect x="346" y="354" width="118" height="60" rx="8" fill="#cbd5e1"/><text x="328" y="460" fill="#101828" font-size="16" font-weight="700">Cendekia Bangsa</text><text x="328" y="484" fill="#667085" font-size="13">Tangerang</text><rect x="328" y="506" width="72" height="24" rx="12" fill="#f2fbf5"/><text x="343" y="523" fill="#247448" font-size="11">STEM Focus</text></g><g><rect x="520" y="322" width="186" height="242" rx="18" fill="#fff" stroke="#dce6f2"/><rect x="534" y="336" width="158" height="96" rx="12" fill="#dce8f1"/><rect x="552" y="350" width="122" height="66" rx="8" fill="#b9c9d9"/><text x="536" y="460" fill="#101828" font-size="16" font-weight="700">HighScope</text><text x="536" y="484" fill="#667085" font-size="13">Jakarta Timur</text><rect x="536" y="506" width="78" height="24" rx="12" fill="#fff7ed"/><text x="550" y="523" fill="#a15c12" font-size="11">National</text></g></g><rect x="790" y="172" width="334" height="236" rx="22" fill="#fff" stroke="#dce6f2"/><text x="816" y="208" fill="#101828" font-family="Arial" font-size="19" font-weight="700">120 schools found</text><g font-family="Arial" font-size="13"><text x="816" y="246" fill="#667085">Location</text><rect x="816" y="260" width="132" height="34" rx="10" fill="#f8fafc" stroke="#e4e7ec"/><text x="836" y="282" fill="#344054">Jakarta</text><text x="970" y="246" fill="#667085">Level</text><rect x="970" y="260" width="128" height="34" rx="10" fill="#f8fafc" stroke="#e4e7ec"/><text x="990" y="282" fill="#344054">All Levels</text><line x1="816" y1="322" x2="1098" y2="322" stroke="#e4e7ec"/><text x="816" y="350" fill="#344054">Global Mandiri School</text><text x="1036" y="350" fill="#2563eb">View →</text><text x="816" y="382" fill="#344054">Sekolah Cendekia Bangsa</text><text x="1036" y="382" fill="#2563eb">View →</text></g><rect x="790" y="430" width="334" height="210" rx="22" fill="#eaf2f8" stroke="#dce6f2"/><path d="M820 466 C880 440 922 482 976 458 S1064 438 1092 470" fill="none" stroke="#c1d3e6" stroke-width="7"/><path d="M824 532 C868 510 922 544 958 516 S1040 492 1094 520" fill="none" stroke="#c1d3e6" stroke-width="5"/><g fill="#0d1b2a"><circle cx="858" cy="486" r="10"/><circle cx="932" cy="536" r="10"/><circle cx="1006" cy="476" r="10"/><circle cx="1068" cy="548" r="10"/></g><rect x="76" y="670" width="1048" height="54" rx="16" fill="#0d1b2a"/><text x="104" y="704" fill="#fff" font-family="Arial" font-size="15" font-weight="700">Search · Compare · Explore nearby schools · Responsive profiles</text></svg>