<svg xmlns="http://www.w3.org/2000/svg" viewBox="0 0 1200 800"><rect width="1200" height="800" fill="#f7f9fc"/><rect x="38" y="38" width="1124" height="724" rx="30" fill="#fff" stroke="#dbe3ef"/><rect x="58" y="58" width="220" height="684" rx="22" fill="#0d1b2a"/><text x="91" y="112" fill="#fff" font-family="Arial" font-size="31" font-weight="700">PindaiLoker</text><text x="91" y="148" fill="#9fb3c9" font-family="Arial" font-size="15">Job discovery & tracker</text><g font-family="Arial" font-size="18"><rect x="78" y="196" width="180" height="48" rx="10" fill="#173b69"/><text x="103" y="227" fill="#fff">Dashboard</text><text x="103" y="286" fill="#aec0d3">Discover Jobs</text><text x="103" y="340" fill="#aec0d3">Saved Jobs</text><text x="103" y="394" fill="#aec0d3">Applications</text><text x="103" y="448" fill="#aec0d3">Opportunities</text><text x="103" y="502" fill="#aec0d3">Calendar</text><text x="103" y="556" fill="#aec0d3">Insights</text></g><text x="320" y="101" fill="#101828" font-family="Arial" font-size="28" font-weight="700">Good morning, Elton 👋</text><text x="320" y="133" fill="#667085" font-family="Arial" font-size="15">Find the right opportunity and keep the application workflow organized.</text><rect x="320" y="165" width="800" height="52" rx="15" fill="#f8fafc" stroke="#dce6f2"/><text x="346" y="198" fill="#98a2b3" font-family="Arial" font-size="14">Search jobs, company, or keyword...</text><rect x="1014" y="171" width="88" height="40" rx="12" fill="#0d1b2a"/><text x="1037" y="197" fill="#fff" font-family="Arial" font-size="13" font-weight="700">Search</text><g font-family="Arial"><g><rect x="320" y="246" width="184" height="96" rx="16" fill="#f8fbff" stroke="#dce6f2"/><text x="342" y="276" fill="#667085" font-size="13">SAVED JOBS</text><text x="342" y="320" fill="#101828" font-size="31" font-weight="700">24</text></g><g><rect x="520" y="246" width="184" height="96" rx="16" fill="#f2fbf5" stroke="#d8efdf"/><text x="542" y="276" fill="#667085" font-size="13">APPLICATIONS</text><text x="542" y="320" fill="#101828" font-size="31" font-weight="700">12</text></g><g><rect x="720" y="246" width="184" height="96" rx="16" fill="#fbf7ff" stroke="#e7dcf7"/><text x="742" y="276" fill="#667085" font-size="13">INTERVIEWS</text><text x="742" y="320" fill="#101828" font-size="31" font-weight="700">3</text></g><g><rect x="920" y="246" width="200" height="96" rx="16" fill="#fffaf0" stroke="#efe6cd"/><text x="942" y="276" fill="#667085" font-size="13">OFFERS</text><text x="942" y="320" fill="#101828" font-size="31" font-weight="700">1</text></g></g><text x="320" y="386" fill="#101828" font-family="Arial" font-size="20" font-weight="700">Recommended for you</text><g font-family="Arial"><g><rect x="320" y="410" width="238" height="152" rx="18" fill="#fff" stroke="#dce6f2"/><text x="342" y="446" fill="#101828" font-size="17" font-weight="700">Product Designer</text><text x="342" y="472" fill="#667085" font-size="13">PT Inovasi Digital</text><text x="342" y="498" fill="#667085" font-size="13">Jakarta · Full-time</text><rect x="342" y="522" width="60" height="22" rx="11" fill="#eef4ff"/><text x="357" y="537" fill="#2459b8" font-size="11">Design</text></g><g><rect x="580" y="410" width="238" height="152" rx="18" fill="#fff" stroke="#dce6f2"/><text x="602" y="446" fill="#101828" font-size="17" font-weight="700">UX Researcher</text><text x="602" y="472" fill="#667085" font-size="13">Kreasi Teknologi</text><text x="602" y="498" fill="#667085" font-size="13">Bandung · Full-time</text><rect x="602" y="522" width="66" height="22" rx="11" fill="#fbf7ff"/><text x="617" y="537" fill="#7654a8" font-size="11">Research</text></g><g><rect x="840" y="410" width="280" height="152" rx="18" fill="#fff" stroke="#dce6f2"/><text x="862" y="446" fill="#101828" font-size="17" font-weight="700">Frontend Developer</text><text x="862" y="472" fill="#667085" font-size="13">Solusi App Indonesia</text><text x="862" y="498" fill="#667085" font-size="13">Remote · Full-time</text><rect x="862" y="522" width="82" height="22" rx="11" fill="#f2fbf5"/><text x="878" y="537" fill="#247448" font-size="11">Engineering</text></g></g><rect x="320" y="592" width="510" height="110" rx="18" fill="#fff" stroke="#dce6f2"/><text x="344" y="626" fill="#101828" font-family="Arial" font-size="18" font-weight="700">Application pipeline</text><g font-family="Arial" font-size="12" fill="#667085"><text x="344" y="658">Applied</text><text x="344" y="686">Interview</text></g><rect x="420" y="649" width="360" height="9" rx="5" fill="#e8eef6"/><rect x="420" y="649" width="290" height="9" rx="5" fill="#2563eb"/><rect x="420" y="677" width="360" height="9" rx="5" fill="#e8eef6"/><rect x="420" y="677" width="160" height="9" rx="5" fill="#7c5ac7"/><rect x="850" y="592" width="270" height="110" rx="18" fill="#0d1b2a"/><text x="875" y="628" fill="#fff" font-family="Arial" font-size="17" font-weight="700">Insights</text><text x="875" y="660" fill="#9fb3c9" font-family="Arial" font-size="13">12 applications this month</text><text x="875" y="686" fill="#74d39a" font-family="Arial" font-size="13">↑ 20% vs last month</text></svg>